<svg width="198" height="30" viewBox="0 0 198 30" fill="none" xmlns="http://www.w3.org/2000/svg">
<path d="M14.7737 7.32H16.0697V20.256H14.7737V7.32ZM15.7097 13.176H19.4057V14.28H15.7097V13.176ZM9.32572 20.736C10.7657 20.736 11.9977 20.896 13.0217 21.216C14.0617 21.52 14.8537 21.968 15.3977 22.56C15.9577 23.152 16.2377 23.864 16.2377 24.696C16.2377 25.528 15.9577 26.24 15.3977 26.832C14.8537 27.424 14.0617 27.872 13.0217 28.176C11.9977 28.48 10.7657 28.632 9.32572 28.632C7.90172 28.632 6.66972 28.48 5.62972 28.176C4.60572 27.872 3.81372 27.424 3.25372 26.832C2.70972 26.24 2.43772 25.528 2.43772 24.696C2.43772 23.864 2.70972 23.152 3.25372 22.56C3.81372 21.968 4.60572 21.52 5.62972 21.216C6.66972 20.896 7.90172 20.736 9.32572 20.736ZM9.32572 21.816C8.18972 21.816 7.19772 21.936 6.34972 22.176C5.50172 22.4 4.83772 22.728 4.35772 23.16C3.89372 23.592 3.66172 24.104 3.66172 24.696C3.66172 25.288 3.89372 25.8 4.35772 26.232C4.83772 26.648 5.50172 26.976 6.34972 27.216C7.19772 27.456 8.18972 27.576 9.32572 27.576C10.4777 27.576 11.4777 27.456 12.3257 27.216C13.1897 26.976 13.8537 26.648 14.3177 26.232C14.7817 25.8 15.0137 25.288 15.0137 24.696C15.0137 24.104 14.7817 23.592 14.3177 23.16C13.8537 22.728 13.1897 22.4 12.3257 22.176C11.4777 21.936 10.4777 21.816 9.32572 21.816ZM0.685719 17.112H2.26972C3.69372 17.112 4.95772 17.096 6.06172 17.064C7.16572 17.016 8.20572 16.936 9.18172 16.824C10.1577 16.712 11.1497 16.56 12.1577 16.368L12.3257 17.448C11.2697 17.64 10.2457 17.792 9.25372 17.904C8.27772 18.016 7.22972 18.096 6.10972 18.144C4.98972 18.192 3.70972 18.216 2.26972 18.216H0.685719V17.112ZM0.685719 9.072H10.0457V10.152H1.93372V17.808H0.685719V9.072ZM37.7638 7.344H39.0598V23.064H37.7638V7.344ZM25.6198 27.072H39.7798V28.176H25.6198V27.072ZM25.6198 21.648H26.8918V27.528H25.6198V21.648ZM27.5878 8.52H28.6438V10.728C28.6438 12.12 28.3798 13.424 27.8518 14.64C27.3238 15.84 26.6198 16.896 25.7398 17.808C24.8598 18.704 23.8758 19.392 22.7878 19.872L22.0678 18.84C23.0758 18.408 23.9958 17.792 24.8278 16.992C25.6598 16.176 26.3238 15.232 26.8198 14.16C27.3318 13.088 27.5878 11.944 27.5878 10.728V8.52ZM27.7798 8.52H28.8358V10.728C28.8358 11.608 28.9798 12.448 29.2678 13.248C29.5718 14.032 29.9798 14.76 30.4918 15.432C31.0198 16.104 31.6118 16.696 32.2678 17.208C32.9398 17.72 33.6518 18.12 34.4038 18.408L33.7078 19.44C32.6358 18.976 31.6438 18.32 30.7318 17.472C29.8198 16.624 29.0998 15.624 28.5718 14.472C28.0438 13.32 27.7798 12.072 27.7798 10.728V8.52ZM50.722 8.952C51.826 8.952 52.802 9.16 53.65 9.576C54.498 9.976 55.154 10.544 55.618 11.28C56.098 12.016 56.338 12.872 56.338 13.848C56.338 14.808 56.098 15.664 55.618 16.416C55.154 17.152 54.498 17.728 53.65 18.144C52.802 18.544 51.826 18.744 50.722 18.744C49.618 18.744 48.642 18.544 47.794 18.144C46.946 17.728 46.282 17.152 45.802 16.416C45.322 15.664 45.082 14.808 45.082 13.848C45.082 12.872 45.322 12.016 45.802 11.28C46.282 10.544 46.946 9.976 47.794 9.576C48.642 9.16 49.618 8.952 50.722 8.952ZM50.722 10.08C49.874 10.08 49.114 10.248 48.442 10.584C47.786 10.904 47.266 11.344 46.882 11.904C46.514 12.464 46.33 13.112 46.33 13.848C46.33 14.568 46.514 15.216 46.882 15.792C47.266 16.368 47.786 16.816 48.442 17.136C49.114 17.456 49.874 17.616 50.722 17.616C51.57 17.616 52.322 17.456 52.978 17.136C53.634 16.816 54.146 16.368 54.514 15.792C54.898 15.216 55.09 14.568 55.09 13.848C55.09 13.112 54.898 12.464 54.514 11.904C54.146 11.344 53.634 10.904 52.978 10.584C52.322 10.248 51.57 10.08 50.722 10.08ZM59.626 7.296H60.922V28.728H59.626V7.296ZM44.098 23.832L43.882 22.68C45.21 22.68 46.674 22.672 48.274 22.656C49.874 22.624 51.514 22.56 53.194 22.464C54.89 22.352 56.53 22.176 58.114 21.936L58.234 22.896C56.602 23.2 54.938 23.424 53.242 23.568C51.562 23.696 49.938 23.776 48.37 23.808C46.818 23.824 45.394 23.832 44.098 23.832ZM71.4553 14.136H98.2393V17.496H71.4553V14.136ZM82.7193 9.688H86.9753V15.448H82.7193V9.688ZM74.6873 8.344H95.1993V11.672H74.6873V8.344ZM74.6873 1.464H95.0393V4.824H78.9113V10.456H74.6873V1.464ZM84.7353 18.968C87.9353 18.968 90.4527 19.448 92.2873 20.408C94.122 21.3467 95.0393 22.6907 95.0393 24.44C95.0393 26.168 94.122 27.5013 92.2873 28.44C90.4527 29.4 87.9353 29.88 84.7353 29.88C81.5353 29.88 79.018 29.4 77.1833 28.44C75.37 27.5013 74.4633 26.168 74.4633 24.44C74.4633 22.6907 75.37 21.3467 77.1833 20.408C79.018 19.448 81.5353 18.968 84.7353 18.968ZM84.7353 22.2C83.4127 22.2 82.3033 22.2853 81.4073 22.456C80.5327 22.6053 79.8713 22.8507 79.4233 23.192C78.9753 23.512 78.7513 23.9173 78.7513 24.408C78.7513 24.92 78.9753 25.3467 79.4233 25.688C79.8713 26.008 80.5327 26.2533 81.4073 26.424C82.3033 26.5733 83.4127 26.648 84.7353 26.648C86.058 26.648 87.1567 26.5733 88.0313 26.424C88.9273 26.2533 89.5993 26.008 90.0473 25.688C90.4953 25.3467 90.7193 24.92 90.7193 24.408C90.7193 23.9173 90.4953 23.512 90.0473 23.192C89.5993 22.8507 88.9273 22.6053 88.0313 22.456C87.1567 22.2853 86.058 22.2 84.7353 22.2ZM106.533 9.048C107.573 9.048 108.485 9.352 109.269 9.96C110.053 10.568 110.661 11.424 111.093 12.528C111.541 13.616 111.765 14.912 111.765 16.416C111.765 17.904 111.541 19.2 111.093 20.304C110.661 21.408 110.053 22.264 109.269 22.872C108.485 23.464 107.573 23.76 106.533 23.76C105.525 23.76 104.621 23.464 103.821 22.872C103.037 22.264 102.421 21.408 101.973 20.304C101.541 19.2 101.325 17.904 101.325 16.416C101.325 14.912 101.541 13.616 101.973 12.528C102.421 11.424 103.037 10.568 103.821 9.96C104.621 9.352 105.525 9.048 106.533 9.048ZM106.533 10.176C105.749 10.176 105.053 10.448 104.445 10.992C103.837 11.52 103.365 12.248 103.029 13.176C102.693 14.104 102.525 15.184 102.525 16.416C102.525 17.632 102.693 18.712 103.029 19.656C103.365 20.6 103.837 21.336 104.445 21.864C105.053 22.392 105.749 22.656 106.533 22.656C107.333 22.656 108.029 22.392 108.621 21.864C109.229 21.336 109.701 20.6 110.037 19.656C110.373 18.712 110.541 17.632 110.541 16.416C110.541 15.184 110.373 14.104 110.037 13.176C109.701 12.248 109.229 11.52 108.621 10.992C108.013 10.448 107.317 10.176 106.533 10.176ZM115.845 7.32H117.141V28.704H115.845V7.32ZM116.805 16.152H120.885V17.256H116.805V16.152ZM139.075 7.296H140.323V28.728H139.075V7.296ZM124.243 22.344H125.947C127.115 22.344 128.267 22.328 129.403 22.296C130.539 22.248 131.707 22.168 132.907 22.056C134.107 21.928 135.379 21.76 136.723 21.552L136.867 22.632C134.803 22.952 132.907 23.168 131.179 23.28C129.467 23.392 127.723 23.448 125.947 23.448H124.243V22.344ZM124.195 9.408H133.939V16.68H125.515V22.776H124.243V15.576H132.667V10.512H124.195V9.408ZM170.855 0.151999H175.111V29.88H170.855V0.151999ZM151.975 2.52H156.199V9.752H162.343V2.52H166.567V22.968H151.975V2.52ZM156.199 13.048V19.576H162.343V13.048H156.199ZM190.612 14.904H196.756V15.984H190.612V14.904ZM185.86 9.288H186.916V13.536C186.916 14.64 186.748 15.728 186.412 16.8C186.076 17.872 185.62 18.88 185.044 19.824C184.484 20.752 183.852 21.584 183.148 22.32C182.444 23.056 181.716 23.632 180.964 24.048L180.124 23.04C180.844 22.672 181.54 22.16 182.212 21.504C182.884 20.832 183.492 20.064 184.036 19.2C184.596 18.336 185.036 17.424 185.356 16.464C185.692 15.504 185.86 14.528 185.86 13.536V9.288ZM186.076 9.288H187.132V13.536C187.132 14.48 187.292 15.424 187.612 16.368C187.948 17.296 188.396 18.168 188.956 18.984C189.516 19.8 190.14 20.528 190.828 21.168C191.516 21.792 192.212 22.28 192.916 22.632L192.148 23.688C191.38 23.272 190.636 22.712 189.916 22.008C189.196 21.304 188.548 20.504 187.972 19.608C187.396 18.696 186.932 17.728 186.58 16.704C186.244 15.664 186.076 14.608 186.076 13.536V9.288ZM196.132 7.296H197.404V28.728H196.132V7.296Z" fill="#FF7D45"/>
</svg>
