<svg width="30" height="30" viewBox="0 0 30 30" fill="none" xmlns="http://www.w3.org/2000/svg">
<path d="M23.301 2.04L21.4635 0H6.993C5.949 0 5.5455 0.774 5.5455 1.3785V6.8235H7.575V2.4795C7.575 2.2485 7.77 2.0535 7.995 2.0535H18.3495C18.5775 2.0535 18.6915 2.094 18.6915 2.2815V9.5115H26.061C26.3505 9.5115 26.463 9.6615 26.463 9.8805V27.5355C26.463 27.9045 26.313 27.96 26.088 27.96H7.995C7.88343 27.9573 7.77727 27.9113 7.69892 27.8319C7.62056 27.7524 7.57613 27.6456 7.575 27.534V25.92H5.559V28.4625C5.532 29.3625 6.012 30 6.993 30H27.09C28.14 30 28.4985 29.2395 28.4985 28.5465V7.7805L27.9735 7.2105L23.301 2.04ZM20.754 2.28L21.3345 2.931L25.2285 7.2105L25.443 7.47H21.4635C21.1635 7.47 20.973 7.4205 20.8935 7.32C20.814 7.2225 20.7675 7.065 20.754 6.8505V2.28ZM19.119 16.0005H25.9845V18.0015H19.1175L19.119 16.0005ZM19.119 12.0015H25.9845V14.001H19.1175L19.119 12.0015ZM19.119 20.001H25.9845V22.002H19.1175L19.119 20.001ZM1.5 8.439V24.4395H17.1975V8.439H1.5ZM9.3495 17.745L8.3895 19.212H9.3495V21H4.524L8.025 15.735L4.923 11.001H7.515L9.351 13.755L11.1855 11.001H13.776L10.668 15.735L14.1735 21H11.484L9.3495 17.745Z" fill="#2E2E2E"/>
</svg>
