<svg width="23" height="23" viewBox="0 0 23 23" fill="none" xmlns="http://www.w3.org/2000/svg">
<path fill-rule="evenodd" clip-rule="evenodd" d="M10.2305 2.30731e-08C8.59897 0.000139016 6.99117 0.390432 5.5412 1.13832C4.09124 1.8862 2.84114 2.96999 1.89522 4.29927C0.949294 5.62854 0.33497 7.16475 0.103499 8.77973C-0.127971 10.3947 0.0301238 12.0416 0.564595 13.5831C1.09907 15.1245 1.99441 16.5158 3.17594 17.6409C4.35747 18.7659 5.79091 19.5921 7.35667 20.0505C8.92243 20.5089 10.5751 20.5862 12.1768 20.276C13.7786 19.9657 15.2829 19.277 16.5642 18.2671L20.9601 22.663C21.1871 22.8822 21.4912 23.0036 21.8068 23.0008C22.1224 22.9981 22.4243 22.8715 22.6474 22.6483C22.8706 22.4251 22.9972 22.1232 23 21.8076C23.0027 21.492 22.8814 21.188 22.6621 20.961L18.2663 16.5651C19.4555 15.0564 20.196 13.2434 20.4029 11.3336C20.6099 9.42371 20.275 7.49417 19.4365 5.76576C18.598 4.03736 17.2899 2.57993 15.6618 1.56025C14.0338 0.540583 12.1515 -0.000128967 10.2305 2.30731e-08ZM2.4065 10.2313C2.4065 8.15628 3.23081 6.16623 4.69808 4.69895C6.16536 3.23168 8.15541 2.40737 10.2305 2.40737C12.3055 2.40737 14.2955 3.23168 15.7628 4.69895C17.2301 6.16623 18.0544 8.15628 18.0544 10.2313C18.0544 12.3064 17.2301 14.2964 15.7628 15.7637C14.2955 17.231 12.3055 18.0553 10.2305 18.0553C8.15541 18.0553 6.16536 17.231 4.69808 15.7637C3.23081 14.2964 2.4065 12.3064 2.4065 10.2313Z" fill="#2E2E2E"/>
</svg>
