<svg width="20" height="20" viewBox="0 0 20 20" fill="none" xmlns="http://www.w3.org/2000/svg">
<g clip-path="url(#clip0_755_960)">
<path d="M2.00016 0.666667V0C1.82335 0 1.65378 0.0702379 1.52876 0.195262C1.40373 0.320286 1.3335 0.489856 1.3335 0.666667H2.00016ZM18.0002 0.666667H18.6668C18.6668 0.489856 18.5966 0.320286 18.4716 0.195262C18.3465 0.0702379 18.177 0 18.0002 0V0.666667ZM18.0002 19.3333L17.7015 19.9293C17.8031 19.9803 17.9161 20.0044 18.0297 19.9993C18.1433 19.9943 18.2537 19.9603 18.3504 19.9006C18.4471 19.8408 18.527 19.7574 18.5824 19.6581C18.6378 19.5588 18.6668 19.447 18.6668 19.3333H18.0002ZM15.3335 18L15.6322 17.404C15.5395 17.3575 15.4372 17.3334 15.3335 17.3334C15.2298 17.3334 15.1275 17.3575 15.0348 17.404L15.3335 18ZM12.6668 19.3333L12.3682 19.9293C12.4609 19.9758 12.5631 20 12.6668 20C12.7705 20 12.8728 19.9758 12.9655 19.9293L12.6668 19.3333ZM10.0002 18L10.2988 17.404C10.2061 17.3575 10.1039 17.3334 10.0002 17.3334C9.89647 17.3334 9.7942 17.3575 9.7015 17.404L10.0002 18ZM7.3335 19.3333L7.03483 19.9293C7.12754 19.9758 7.2298 20 7.3335 20C7.43719 20 7.53946 19.9758 7.63216 19.9293L7.3335 19.3333ZM2.00016 19.3333H1.3335C1.3335 19.447 1.36258 19.5588 1.41796 19.6581C1.47335 19.7574 1.5532 19.8408 1.64993 19.9006C1.74667 19.9603 1.85707 19.9943 1.97064 19.9993C2.08422 20.0044 2.19719 19.9803 2.29883 19.9293L2.00016 19.3333ZM4.66683 18L4.9655 17.404C4.87279 17.3575 4.77052 17.3334 4.66683 17.3334C4.56313 17.3334 4.46087 17.3575 4.36816 17.404L4.66683 18ZM2.00016 1.33333H18.0002V0L2.00016 0V1.33333ZM17.3335 0.666667V19.3333H18.6668V0.666667H17.3335ZM18.2988 18.7373L15.6322 17.404L15.0348 18.596L17.7015 19.9293L18.2988 18.7373ZM15.0348 17.404L12.3682 18.7373L12.9655 19.9293L15.6322 18.596L15.0348 17.404ZM12.9655 18.7373L10.2988 17.404L9.7015 18.596L12.3682 19.9293L12.9655 18.7373ZM9.7015 17.404L7.03483 18.7373L7.63216 19.9293L10.2988 18.596L9.7015 17.404ZM2.66683 19.3333V0.666667H1.3335V19.3333H2.66683ZM7.63216 18.7373L4.9655 17.404L4.36816 18.596L7.03483 19.9293L7.63216 18.7373ZM4.36816 17.404L1.7015 18.7373L2.29883 19.9293L4.9655 18.596L4.36816 17.404ZM5.3335 6.66667H8.00016V5.33333H5.3335V6.66667ZM10.6668 6.66667H14.6668V5.33333H10.6668V6.66667ZM5.3335 10.6667H8.00016V9.33333H5.3335V10.6667ZM10.6668 10.6667H14.6668V9.33333H10.6668V10.6667ZM10.6668 14.6667H14.6668V13.3333H10.6668V14.6667Z" fill="#767676"/>
</g>
<defs>
<clipPath id="clip0_755_960">
<rect width="20" height="20" fill="white"/>
</clipPath>
</defs>
</svg>
