<svg width="36" height="34" viewBox="0 0 36 34" fill="none" xmlns="http://www.w3.org/2000/svg">
<path d="M22.7059 9.46667V5.73333C22.7059 4.74319 22.3092 3.7936 21.6032 3.09347C20.8972 2.39333 19.9396 2 18.9412 2H5.76471C4.76624 2 3.80868 2.39333 3.10266 3.09347C2.39664 3.7936 2 4.74319 2 5.73333V28.1333C2 29.1235 2.39664 30.0731 3.10266 30.7732C3.80868 31.4733 4.76624 31.8667 5.76471 31.8667H18.9412C19.9396 31.8667 20.8972 31.4733 21.6032 30.7732C22.3092 30.0731 22.7059 29.1235 22.7059 28.1333V24.4M11.4118 16.9333H34M34 16.9333L28.3529 11.3333M34 16.9333L28.3529 22.5333" stroke="black" stroke-width="2.4" stroke-linecap="round" stroke-linejoin="round"/>
</svg>
