<svg width="24" height="24" viewBox="0 0 24 24" fill="none" xmlns="http://www.w3.org/2000/svg">
<path d="M1.8291 23.0054L1.82955 19.0584C1.82979 16.879 3.59664 15.1124 5.77607 15.1124H12.3532M20.0583 14.1257L22.8772 16.7567M22.8772 16.7567L20.0583 19.3878M22.8772 16.7567H15.6419M18.2729 1.95728C19.8694 2.85212 20.904 4.28669 20.904 5.9038C20.904 7.52091 19.8694 8.95547 18.2729 9.85032M14.9842 5.9038C14.9842 8.0834 13.2173 9.85032 11.0377 9.85032C8.85805 9.85032 7.09113 8.0834 7.09113 5.9038C7.09113 3.72419 8.85805 1.95728 11.0377 1.95728C13.2173 1.95728 14.9842 3.72419 14.9842 5.9038Z" stroke="#FF3B30" stroke-width="2" stroke-linecap="round" stroke-linejoin="round"/>
</svg>
